<svg height="512pt" viewBox="-86 0 512 512" width="512pt" xmlns="http://www.w3.org/2000/svg"><path d="m23.855469 223.804688v100.722656c0 70.78125 50.417969 129.785156 117.300781 143.054687l28.539062 32.960938 28.535157-32.960938c66.886719-13.265625 117.3125-72.269531 117.3125-143.050781v-100.726562zm0 0" fill="#ffb555"/><path d="m182.628906 87.058594v-29.652344c0-27.519531-22.390625-49.90625-49.910156-49.90625h-18.53125v25.859375h18.53125c13.261719 0 24.050781 10.789063 24.050781 24.050781v29.648438c-83.535156 5.574218-149.269531 64.667968-149.269531 136.746094h324.394531c0-72.078126-65.734375-131.175782-149.265625-136.746094zm0 0" fill="#aa6100"/><path d="m171.160156 467.582031c-66.882812-13.269531-117.304687-72.273437-117.304687-143.054687v-100.722656h-30v100.722656c0 70.78125 50.417969 129.785156 117.300781 143.054687l28.539062 32.960938 15-17.328125zm0 0" fill="#ff8243"/><path d="m184.699219 87.207031c-.6875-.050781-1.378907-.101562-2.070313-.148437v-29.652344c0-6.007812-1.070312-11.769531-3.023437-17.109375-4.34375-4.285156-10.3125-6.9375-16.882813-6.9375h-18.53125v-24.527344c-3.683594-.871093-7.523437-1.332031-11.472656-1.332031h-18.53125v25.859375h18.53125c13.261719 0 24.050781 10.789063 24.050781 24.046875v29.652344c-83.535156 5.570312-149.269531 64.664062-149.269531 136.746094h30.003906c0-71.480469 64.648438-130.195313 147.195313-136.597657zm0 0" fill="#891c00"/><path d="m308.039062 324.527344c0 65.839844-46.792968 122.910156-111.269531 135.699218l-2.523437.5-24.550782 28.355469-24.550781-28.359375-2.527343-.5c-64.46875-12.789062-111.261719-69.859375-111.261719-135.695312v-80.71875h-15v80.71875c0 72.105468 50.640625 134.722656 120.792969 149.878906l32.546874 37.59375 32.542969-37.589844c70.160157-15.15625 120.804688-77.773437 120.804688-149.882812v-80.71875h-15.003907zm0 0"/><path d="m75.855469 284.355469v40.171875c0 38.910156 8.808593 75.949218 24.800781 104.289062l13.0625-7.371094c-14.742188-26.128906-22.859375-60.546874-22.859375-96.917968v-40.171875zm0 0"/><path d="m263.539062 242.351562h-15c0 87.804688.65625 94.078126-2.238281 114.78125l14.859375 2.074219c3.066406-21.964843 2.378906-29.152343 2.378906-116.855469zm0 0"/><path d="m209.535156 280.355469h-15.003906c0 45.261719 1.070312 85.613281-6.320312 130.195312l14.800781 2.453125c7.589843-45.78125 6.523437-86.441406 6.523437-132.648437zm0 0"/><path d="m129.863281 256.019531c0 70.667969-.59375 90.914063 2.398438 124.113281l14.941406-1.347656c-2.902344-32.183594-2.339844-50.398437-2.339844-122.765625zm0 0"/><path d="m190.128906 80.164062v-22.757812c0-31.652344-25.753906-57.40625-57.410156-57.40625h-26.03125v40.859375h26.03125c9.125 0 16.546875 7.421875 16.546875 16.546875v22.757812c-84.011719 8.59375-149.265625 69.472657-149.265625 143.640626v7.5h339.394531v-7.5c0-74.398438-65.527343-135.074219-149.265625-143.640626zm53.441406 136.140626-109.929687-109.933594-10.609375 10.609375 99.324219 99.324219h-55.703125l-85.640625-85.640626-10.609375 10.609376 75.03125 75.03125h-55.707032l-44.898437-44.902344-10.605469 10.613281 34.289063 34.289063h-53.25c4.445312-63.839844 65.21875-116.640626 142.003906-121.761719l7.003906-.46875v-36.667969c0-17.394531-14.152343-31.546875-31.550781-31.546875h-11.03125v-10.859375h11.03125c23.382812 0 42.40625 19.023438 42.40625 42.40625v36.667969l7.003906.46875c76.785156 5.121093 137.558594 57.921875 142.003906 121.761719zm0 0"/><g fill="#fff"><path d="m246.453125 427.390625-8.996094-12.007813c28.542969-21.378906 45.582031-55.34375 45.582031-90.855468v-25.71875h15v25.71875c0 40.210937-19.285156 78.664062-51.585937 102.863281zm51.585937-138.578125h-15v-15.003906h15zm0-25.003906h-15v-15h15zm0 0"/><path d="m296.207031 200.832031c-4.796875-17.085937-15.003906-33.097656-29.507812-46.3125-11.347657-10.335937-24.769531-18.636719-39.898438-24.667969l5.554688-13.933593c16.808593 6.699219 31.761719 15.957031 44.445312 27.511719 16.585938 15.105468 28.289063 33.554687 33.847657 53.34375zm-78.355469-74.210937c-4.480468-1.457032-9.117187-2.71875-13.78125-3.757813l3.257813-14.640625c5.125 1.136719 10.226563 2.527344 15.160156 4.132813zm-23.15625-5.539063c-4.675781-.738281-9.464843-1.273437-14.230468-1.59375l1-14.96875c5.214844.347657 10.457031.9375 15.582031 1.75zm0 0"/></g></svg>