<?xml version="1.0" encoding="UTF-8" standalone="no"?>
<!-- Created with Inkscape (http://www.inkscape.org/) -->

<svg
   xmlns:dc="http://purl.org/dc/elements/1.1/"
   xmlns:cc="http://creativecommons.org/ns#"
   xmlns:rdf="http://www.w3.org/1999/02/22-rdf-syntax-ns#"
   xmlns:svg="http://www.w3.org/2000/svg"
   xmlns="http://www.w3.org/2000/svg"
   xmlns:sodipodi="http://sodipodi.sourceforge.net/DTD/sodipodi-0.dtd"
   xmlns:inkscape="http://www.inkscape.org/namespaces/inkscape"
   width="40mm"
   height="28.6mm"
   viewBox="0 0 40 28.6"
   version="1.1"
   id="svg1813"
   inkscape:version="0.92.3 (2405546, 2018-03-11)"
   sodipodi:docname="logo_black.svg">
  <defs
     id="defs1807" />
  <sodipodi:namedview
     id="base"
     pagecolor="#ffffff"
     bordercolor="#666666"
     borderopacity="1.0"
     inkscape:pageopacity="0.0"
     inkscape:pageshadow="2"
     inkscape:zoom="2.8"
     inkscape:cx="50.72888"
     inkscape:cy="56.803354"
     inkscape:document-units="mm"
     inkscape:current-layer="layer1"
     showgrid="false"
     inkscape:window-width="1366"
     inkscape:window-height="662"
     inkscape:window-x="0"
     inkscape:window-y="27"
     inkscape:window-maximized="1" />
  <metadata
     id="metadata1810">
    <rdf:RDF>
      <cc:Work
         rdf:about="">
        <dc:format>image/svg+xml</dc:format>
        <dc:type
           rdf:resource="http://purl.org/dc/dcmitype/StillImage" />
        <dc:title />
      </cc:Work>
    </rdf:RDF>
  </metadata>
  <g
     inkscape:label="Layer 1"
     inkscape:groupmode="layer"
     id="layer1"
     transform="translate(0,-268.4)">
    <g
       aria-label="LITTLENUTS"
       transform="scale(0.79362012,1.2600487)"
       style="font-style:normal;font-variant:normal;font-weight:normal;font-stretch:normal;font-size:7.37146282px;line-height:1.25;font-family:'Nimbus Roman No9 L';-inkscape-font-specification:'Nimbus Roman No9 L';letter-spacing:0px;word-spacing:0px;fill:#000000;fill-opacity:1;stroke:none;stroke-width:0.19855115"
       id="text832-0-8">
      <path
         d="M 7.7718596,233.71284 H 7.5365492 c -0.267767,0.6329 -0.43005,0.88444 -0.7140453,1.14409 -0.3326802,0.30023 -0.7870726,0.44628 -1.4118622,0.44628 -0.4949633,0 -0.6491321,-0.10548 -0.6491321,-0.45439 v -3.82988 c 0,-0.60856 0.1135981,-0.71405 0.8195292,-0.7465 v -0.20286 H 2.7492001 v 0.20286 c 0.5517623,0.0325 0.697817,0.16228 0.697817,0.5761 v 3.92725 c 0,0.41382 -0.1054839,0.50308 -0.697817,0.5761 v 0.20286 h 4.6899793 z"
         style="font-size:8.114151px;stroke-width:0.19855115"
         id="path834" />
      <path
         d="m 8.8480057,234.84709 c 0,0.36857 -0.1326863,0.47177 -0.6855461,0.52337 v 0.18429 h 2.5800124 v -0.18429 c -0.560232,-0.0369 -0.700289,-0.14006 -0.700289,-0.52337 v -3.56779 c 0,-0.38332 0.1548,-0.50126 0.700289,-0.52337 v -0.18429 H 8.1624596 v 0.18429 c 0.5307454,0.0368 0.6855461,0.14743 0.6855461,0.52337 z"
         style="font-style:normal;font-variant:normal;font-weight:bold;font-stretch:normal;font-size:7.37146282px;font-family:'Nimbus Roman No9 L';-inkscape-font-specification:'Nimbus Roman No9 L Bold';stroke-width:0.19855115"
         id="path836" />
      <path
         d="m 12.664005,234.72979 c 0,0.52177 -0.07756,0.59933 -0.683943,0.64868 v 0.17628 h 2.517194 v -0.17628 c -0.613434,-0.0423 -0.690994,-0.11281 -0.690994,-0.64868 v -3.71586 c 0.867268,0.0282 1.233918,0.35255 1.353785,1.19161 h 0.204478 l -0.0141,-1.41724 h -4.230579 l -0.02115,1.41724 h 0.204478 c 0.119867,-0.83906 0.486517,-1.16341 1.360836,-1.19161 z"
         style="font-style:normal;font-variant:normal;font-weight:bold;font-stretch:normal;font-size:7.05096483px;font-family:'Nimbus Roman No9 L';-inkscape-font-specification:'Nimbus Roman No9 L Bold';stroke-width:0.19855115"
         id="path838" />
      <path
         d="m 17.292743,234.76728 c 0,0.49806 -0.07404,0.57209 -0.652855,0.61921 v 0.16826 h 2.402776 v -0.16826 c -0.585551,-0.0404 -0.659586,-0.10769 -0.659586,-0.61921 v -3.54695 c 0.827848,0.0269 1.177832,0.33652 1.29225,1.13745 h 0.195183 l -0.01346,-1.35283 h -4.03828 l -0.02019,1.35283 h 0.195184 c 0.114418,-0.80093 0.464402,-1.11053 1.29898,-1.13745 z"
         style="font-style:normal;font-variant:normal;font-weight:bold;font-stretch:normal;font-size:6.73046637px;font-family:'Nimbus Roman No9 L';-inkscape-font-specification:'Nimbus Roman No9 L Bold';stroke-width:0.19855115"
         id="path840" />
      <path
         d="m 24.175235,234.09969 h -0.185889 c -0.211529,0.49997 -0.339728,0.69868 -0.564077,0.9038 -0.262809,0.23717 -0.621767,0.35255 -1.115334,0.35255 -0.391008,0 -0.512798,-0.0833 -0.512798,-0.35896 v -3.0255 c 0,-0.48075 0.08974,-0.56408 0.647407,-0.58972 v -0.16025 h -2.237079 v 0.16025 c 0.435878,0.0256 0.551257,0.1282 0.551257,0.45511 v 3.10242 c 0,0.32691 -0.08333,0.39742 -0.551257,0.45511 v 0.16025 h 3.704962 z"
         style="font-style:normal;font-variant:normal;font-weight:bold;font-stretch:normal;font-size:6.4099679px;font-family:'Nimbus Roman No9 L';-inkscape-font-specification:'Nimbus Roman No9 L Bold';stroke-width:0.19855115"
         id="path842" />
      <path
         d="m 28.168445,231.22161 h -3.698552 v 0.16025 c 0.442288,0.0256 0.564078,0.1282 0.564078,0.45511 v 3.10242 c 0,0.33332 -0.08974,0.40383 -0.564078,0.45511 v 0.16025 h 3.749832 l 0.256398,-1.33327 h -0.179479 c -0.198709,0.42946 -0.326908,0.60894 -0.557667,0.79483 -0.294859,0.23717 -0.647407,0.33973 -1.134564,0.33973 -0.410238,0 -0.532028,-0.0833 -0.532028,-0.35896 v -1.55121 c 0.698687,0 0.961496,0.24999 1.038415,0.99354 h 0.166659 v -2.16657 H 27.1108 c -0.09615,0.73074 -0.346138,0.9615 -1.038415,0.95509 v -1.48711 c 0,-0.24358 0.08333,-0.30127 0.416648,-0.30127 1.044825,0 1.358913,0.21794 1.519163,1.07046 h 0.160249 z"
         style="font-style:normal;font-variant:normal;font-weight:bold;font-stretch:normal;font-size:6.4099679px;font-family:'Nimbus Roman No9 L';-inkscape-font-specification:'Nimbus Roman No9 L Bold';stroke-width:0.19855115"
         id="path844" />
      <path
         d="m 30.196999,231.00495 h -1.420128 v 0.16826 c 0.134609,0 0.249027,0.10096 0.57209,0.4846 v 3.19024 c 0,0.38364 -0.100957,0.47786 -0.592281,0.53844 v 0.16826 h 1.527815 v -0.16826 c -0.518246,-0.0606 -0.639394,-0.18846 -0.639394,-0.66632 v -2.70565 l 3.008519,3.66138 h 0.188453 v -3.96425 c 0,-0.38363 0.0875,-0.47113 0.524976,-0.53844 v -0.16826 h -1.44705 v 0.16826 c 0.498054,0.0471 0.625933,0.18846 0.625933,0.66632 v 2.05279 z"
         style="font-style:normal;font-variant:normal;font-weight:bold;font-stretch:normal;font-size:6.73046637px;font-family:'Nimbus Roman No9 L';-inkscape-font-specification:'Nimbus Roman No9 L Bold';stroke-width:0.19855115"
         id="path846" />
      <path
         d="m 37.905557,231.5639 c 0,-0.416 0.09871,-0.52882 0.549975,-0.59933 V 230.7883 H 36.90432 v 0.17627 c 0.549975,0.0423 0.690994,0.18333 0.690994,0.69805 v 2.15054 c 0,1.04354 -0.394854,1.53006 -1.233919,1.53006 -0.719198,0 -1.036492,-0.41601 -1.036492,-1.37494 v -2.35502 c 0,-0.28204 0.04231,-0.43716 0.148071,-0.53587 0.08461,-0.0705 0.197427,-0.0987 0.535873,-0.11282 v -0.17627 h -2.383226 v 0.17627 c 0.493567,0.0494 0.578179,0.14102 0.578179,0.64869 v 2.35502 c 0,0.691 0.14807,1.03649 0.578179,1.34674 0.338446,0.24678 0.789708,0.3737 1.304429,0.3737 0.521771,0 1.015339,-0.15512 1.31853,-0.41601 0.317293,-0.26794 0.500619,-0.80381 0.500619,-1.45955 z"
         style="font-style:normal;font-variant:normal;font-weight:bold;font-stretch:normal;font-size:7.05096483px;font-family:'Nimbus Roman No9 L';-inkscape-font-specification:'Nimbus Roman No9 L Bold';stroke-width:0.19855115"
         id="path848" />
      <path
         d="m 40.47321,234.69229 c 0,0.54549 -0.08109,0.62657 -0.715032,0.67817 v 0.18429 h 2.631613 v -0.18429 c -0.641318,-0.0442 -0.722404,-0.11794 -0.722404,-0.67817 v -3.88476 c 0.90669,0.0295 1.290006,0.36857 1.415321,1.24577 h 0.213772 l -0.01474,-1.48166 H 38.85886 l -0.02211,1.48166 h 0.213773 c 0.125315,-0.8772 0.508631,-1.21629 1.422692,-1.24577 z"
         style="font-style:normal;font-variant:normal;font-weight:bold;font-stretch:normal;font-size:7.37146282px;font-family:'Nimbus Roman No9 L';-inkscape-font-specification:'Nimbus Roman No9 L Bold';stroke-width:0.19855115"
         id="path850" />
      <path
         d="m 47.459384,231.70053 v -1.76077 h -0.243425 c -0.0568,0.21096 -0.121712,0.27588 -0.259653,0.27588 -0.07303,0 -0.162283,-0.0243 -0.340794,-0.0893 -0.381365,-0.12982 -0.641018,-0.17851 -0.949356,-0.17851 -1.103524,0 -1.776999,0.62479 -1.776999,1.64717 0,0.71405 0.421936,1.22524 1.38752,1.68775 l 0.543648,0.25965 c 0.714045,0.34079 0.908785,0.55176 0.908785,0.9737 0,0.55987 -0.397593,0.92501 -1.022383,0.92501 -0.470621,0 -0.876328,-0.20285 -1.184666,-0.60045 -0.219082,-0.30022 -0.33268,-0.56799 -0.470621,-1.13598 h -0.23531 v 2.0042 h 0.23531 c 0.04868,-0.20286 0.113598,-0.27588 0.243425,-0.27588 0.06491,0 0.154169,0.0243 0.33268,0.0811 0.405707,0.13794 0.705931,0.19474 1.05484,0.19474 1.200894,0 2.012309,-0.68971 2.012309,-1.71209 0,-0.60856 -0.373251,-1.21712 -0.892557,-1.47677 l -1.19278,-0.59234 c -0.657246,-0.32456 -0.835757,-0.52742 -0.835757,-0.9169 0,-0.50307 0.340794,-0.81141 0.892556,-0.81141 0.365137,0 0.705931,0.15417 0.998041,0.45439 0.275881,0.284 0.405707,0.51931 0.56799,1.04673 z"
         style="font-size:8.114151px;stroke-width:0.19855115"
         id="path852" />
    </g>
    <path
       inkscape:connector-curvature="0"
       style="fill:#000000;fill-opacity:1;stroke:none;stroke-width:0.52918369px;stroke-linecap:butt;stroke-linejoin:miter;stroke-opacity:1"
       d="m 20.012578,268.38706 -0.031,0.0774 c -0.158405,0.20707 -1.223422,1.49095 -3.809704,1.86042 -2.806413,0.4009 -6.5479723,1.87057 -6.6147944,6.41429 0.066803,4.47691 3.1399624,4.54457 3.1399624,4.54457 0,0 -0.0672,1.90284 0.133404,3.43969 0.174406,1.33786 0.857046,2.675 2.044386,3.57199 -0.26951,-0.8497 -0.643662,-2.83451 0.127204,-6.27888 0,0 0.100203,3.1402 1.23614,5.37866 0.632239,1.24589 1.111694,2.07556 1.456285,2.64178 0.417896,0.26355 0.849068,0.5345 1.200999,0.7607 -0.0011,-0.018 -0.242726,-4.34308 0.776207,-7.07681 0.96675,-2.59242 1.441485,6.11554 1.491427,7.08508 0.455075,-0.29239 0.649561,-0.4219 1.313662,-0.83821 0.344032,-0.57192 0.826807,-1.41561 1.413906,-2.57254 1.135956,-2.23846 1.23614,-5.37866 1.23614,-5.37866 0.750864,3.35531 0.414833,5.31843 0.147805,6.20448 1.131016,-0.89571 1.787598,-2.19441 1.957563,-3.49759 0.200467,-1.53685 0.133404,-3.43969 0.133404,-3.43969 0,0 3.07314,-0.0676 3.139961,-4.54457 -0.0668,-4.54372 -3.808364,-6.01339 -6.614795,-6.41429 -2.586743,-0.36952 -3.651638,-1.65371 -3.809703,-1.86042 l -0.031,-0.0774 c 0,0 -0.016,0.02 -0.018,0.0206 -10e-4,-0.001 -0.018,-0.0206 -0.018,-0.0206 z m -5.345574,10.70977 c 0,0 2.141109,0.23045 5.293891,0.25942 3.052077,-0.0472 5.363172,-0.25942 5.363172,-0.25942 0,0 -1.269161,2.05988 -5.32905,2.05988 -4.059911,0 -5.328013,-2.05988 -5.328013,-2.05988 z"
       id="path872-3-9"
       sodipodi:nodetypes="cccccccccccccccccccccccccccccsc" />
    <path
       style="fill:#000000;fill-opacity:1;stroke:none;stroke-width:0.03261027px;stroke-linecap:butt;stroke-linejoin:miter;stroke-opacity:1"
       d="m 27.554259,287.74065 c -0.121003,-0.0546 0.100203,-0.70344 0.179406,-1.12719 0.0792,-0.42371 0.134005,-1.58252 0.466375,-1.96595 0.332351,-0.38337 0.567278,-0.4522 0.61662,-0.24387 0.0492,0.20834 0.0404,0.56073 0.170005,0.48702 0.129405,-0.0742 0.168006,-1.64788 0.726004,-2.33738 0.557937,-0.68952 0.94957,-1.07527 1.072954,-0.9613 0.123404,0.11421 0.173806,0.46405 0.268429,0.314 0.09481,-0.15001 -0.0518,-1.08146 0.931113,-1.77402 0.982688,-0.69301 1.63703,-0.80074 1.65477,-0.46765 0.01801,0.33304 -0.451114,1.42594 -0.287749,1.51089 0.163406,0.085 0.537977,-0.26821 0.737246,-0.55448 0.199007,-0.28684 0.652159,-1.4293 1.136835,-1.65874 0.484655,-0.22942 1.452127,-0.15801 1.574451,-0.18561 0.122203,-0.0284 0.285688,0.0572 0.277069,0.18561 -0.008,0.12841 -0.026,0.38505 0.0564,0.38638 0.0824,10e-4 0.629963,-0.25361 0.94061,-0.72295 0.310631,-0.46942 0.414494,-1.19588 1.026194,-1.33434 0.611701,-0.13841 1.316022,1.1412 0.673842,2.3598 -0.642181,1.21859 -1.071755,1.91676 -0.987072,1.9774 0.0846,0.0606 0.422713,-0.28683 0.660063,-0.0718 0.237046,0.21462 0.36027,1.3664 -0.86269,2.23306 -1.222717,0.86704 -2.198789,0.69949 -2.533142,0.79959 -0.33429,0.10018 -0.516057,0.35448 -0.292367,0.35434 0.224045,3e-4 1.387522,0.1738 1.582972,0.72375 0.195406,0.55004 -0.0276,0.69143 -0.610221,0.86989 -0.58268,0.17861 -0.529399,0.36417 -1.095377,0.5096 -0.565698,0.14581 -0.787386,0.20479 -0.787386,0.20479 0,0 0.401734,0.21726 -0.136204,0.48539 -0.537999,0.26822 -1.125678,0.55196 -1.872482,0.27975 -0.746804,-0.2722 -1.494929,-0.46209 -1.620933,-0.41141 -0.126003,0.0506 -0.135803,0.037 -0.074,0.0944 0.0616,0.057 0.572158,0.48027 0.172206,0.77037 -0.399971,0.29011 -1.036733,0.14161 -1.54179,0.20273 -0.505017,0.0612 -0.881449,-0.0932 -1.447727,0.50066 -0.566298,0.59382 -0.554278,0.66651 -0.652341,0.61546 -0.098,-0.051 -0.129004,-0.37435 -0.299769,-0.41333 -0.170806,-0.039 -0.197407,-0.02 -0.197407,-0.02 0,0 -0.0706,0.29534 -0.198206,0.65246 -0.127605,0.35707 -0.29333,0.21272 -0.094,-0.29801 0.199206,-0.51078 0.395153,-1.22254 0.93609,-1.87939 0.540917,-0.65683 1.748817,-2.02123 3.556834,-3.00699 1.808019,-0.98579 3.621737,-1.71119 4.138074,-2.06533 0.516037,-0.35451 0.880248,-0.86228 0.880248,-0.86228 0,0 -1.129375,0.79935 -1.686973,1.04046 -0.557379,0.24142 -3.578096,1.65916 -4.363422,2.14736 -0.785285,0.48826 -1.697234,1.25074 -2.091227,1.8016 -0.394273,0.55046 -0.441895,0.8495 -0.702263,0.85523 z"
       id="path953-6-2"
       inkscape:connector-curvature="0" />
    <path
       style="fill:#000000;fill-opacity:1;stroke:none;stroke-width:0.03261027px;stroke-linecap:butt;stroke-linejoin:miter;stroke-opacity:1"
       d="m 12.495755,287.79387 c 0.121004,-0.0546 -0.100203,-0.70344 -0.179407,-1.12718 -0.0792,-0.42372 -0.134003,-1.58253 -0.466354,-1.96596 -0.332371,-0.38337 -0.567278,-0.45222 -0.61664,-0.24387 -0.0492,0.20832 -0.0404,0.56072 -0.170005,0.48702 -0.129405,-0.0741 -0.168006,-1.64786 -0.726004,-2.33738 -0.5579381,-0.68952 -0.9495712,-1.07529 -1.0729551,-0.96129 -0.123404,0.11421 -0.1738056,0.46404 -0.2684285,0.31399 -0.094803,-0.15001 0.051802,-1.08144 -0.9310898,-1.77404 -0.9827124,-0.69298 -1.6370533,-0.80072 -1.6547936,-0.46763 -0.018001,0.33304 0.4511346,1.42593 0.2877491,1.51089 -0.1634053,0.085 -0.5379774,-0.26819 -0.7372436,-0.55448 -0.1990064,-0.28683 -0.6521411,-1.42929 -1.1368169,-1.65874 -0.4846756,-0.22942 -1.4521268,-0.158 -1.5744708,-0.1856 -0.122204,-0.0284 -0.2856893,0.0572 -0.2770689,0.1856 0.008,0.12841 0.026001,0.38505 -0.056401,0.38638 -0.082402,10e-4 -0.6299603,-0.25361 -0.9406103,-0.72295 -0.3106301,-0.46941 -0.4144934,-1.19588 -1.02619314,-1.33436 -0.61169974,-0.1384 -1.31602246,1.14122 -0.67384174,2.35982 0.64218071,1.21861 1.07175458,1.91676 0.98707178,1.97742 -0.084603,0.0606 -0.42271358,-0.28685 -0.66004123,-0.0718 -0.23706765,0.21462 -0.36029163,1.36638 0.86268783,2.23305 1.2226995,0.86703 2.1987709,0.69948 2.5331217,0.79956 0.3342908,0.10018 0.5160567,0.3545 0.2923695,0.35434 -0.2240472,3.4e-4 -1.3875248,0.1738 -1.5829711,0.72378 -0.1954063,0.55003 0.0276,0.69142 0.6102397,0.86989 0.5826588,0.17861 0.5293771,0.36417 1.0953553,0.50959 0.5656983,0.14581 0.7873856,0.20479 0.7873856,0.20479 0,0 -0.4017329,0.21727 0.1362044,0.48539 0.5379974,0.26822 1.1256962,0.55196 1.8724803,0.27975 0.7468041,-0.2722 1.4949282,-0.46209 1.6209326,-0.41141 0.1260041,0.0506 0.1358044,0.037 0.074003,0.0945 -0.061602,0.057 -0.5721581,0.48028 -0.1722055,0.77038 0.399993,0.29011 1.0367534,0.1416 1.5417894,0.20272 0.505036,0.0612 0.881448,-0.0932 1.447727,0.50066 0.566298,0.59382 0.554277,0.66651 0.65234,0.61547 0.098,-0.0511 0.129005,-0.37436 0.29979,-0.41334 0.170806,-0.039 0.197407,-0.02 0.197407,-0.02 0,0 0.0706,0.29534 0.198206,0.65246 0.127604,0.35707 0.29333,0.21273 0.094,-0.29801 -0.199207,-0.51078 -0.395152,-1.22254 -0.93609,-1.87938 -0.540938,-0.65684 -1.748837,-2.02124 -3.5568545,-3.00698 -1.8080181,-0.98581 -3.6217569,-1.71121 -4.1380935,-2.06534 -0.5160366,-0.35452 -0.8802484,-0.86229 -0.8802484,-0.86229 0,0 1.1293764,0.79935 1.6869748,1.04046 0.5573776,0.24142 3.5781149,1.65916 4.3634404,2.14736 0.7852842,0.48826 1.6972342,1.25074 2.0912272,1.8016 0.394273,0.55046 0.441894,0.8495 0.702263,0.85523 z"
       id="path953-5-1-2"
       inkscape:connector-curvature="0" />
  </g>
</svg>
