<?xml version="1.0" encoding="UTF-8" standalone="no"?>
<!-- Created with Inkscape (http://www.inkscape.org/) -->

<svg
   xmlns:dc="http://purl.org/dc/elements/1.1/"
   xmlns:cc="http://creativecommons.org/ns#"
   xmlns:rdf="http://www.w3.org/1999/02/22-rdf-syntax-ns#"
   xmlns:svg="http://www.w3.org/2000/svg"
   xmlns="http://www.w3.org/2000/svg"
   xmlns:sodipodi="http://sodipodi.sourceforge.net/DTD/sodipodi-0.dtd"
   xmlns:inkscape="http://www.inkscape.org/namespaces/inkscape"
   width="40mm"
   height="28.6mm"
   viewBox="0 0 40 28.6"
   version="1.1"
   id="svg1813"
   inkscape:version="0.92.3 (2405546, 2018-03-11)"
   sodipodi:docname="logo_white.svg">
  <defs
     id="defs1807" />
  <sodipodi:namedview
     id="base"
     pagecolor="#ffffff"
     bordercolor="#666666"
     borderopacity="1.0"
     inkscape:pageopacity="0.0"
     inkscape:pageshadow="2"
     inkscape:zoom="3.959798"
     inkscape:cx="70.755252"
     inkscape:cy="32.34242"
     inkscape:document-units="mm"
     inkscape:current-layer="layer1"
     showgrid="false"
     inkscape:window-width="1366"
     inkscape:window-height="662"
     inkscape:window-x="0"
     inkscape:window-y="27"
     inkscape:window-maximized="1" />
  <metadata
     id="metadata1810">
    <rdf:RDF>
      <cc:Work
         rdf:about="">
        <dc:format>image/svg+xml</dc:format>
        <dc:type
           rdf:resource="http://purl.org/dc/dcmitype/StillImage" />
        <dc:title />
      </cc:Work>
    </rdf:RDF>
  </metadata>
  <g
     inkscape:label="Layer 1"
     inkscape:groupmode="layer"
     id="layer1"
     transform="translate(0,-268.4)">
    <g
       aria-label="LITTLENUTS"
       transform="scale(0.79362012,1.2600487)"
       style="font-style:normal;font-variant:normal;font-weight:normal;font-stretch:normal;font-size:7.33664227px;line-height:1.25;font-family:'Nimbus Roman No9 L';-inkscape-font-specification:'Nimbus Roman No9 L';letter-spacing:0px;word-spacing:0px;fill:#ffffff;fill-opacity:1;stroke:none;stroke-width:0.19761325"
       id="text832-0-8">
      <path
         d="M 7.8194648,233.72227 H 7.5852659 c -0.2665021,0.62991 -0.4280185,0.88026 -0.7106723,1.13869 -0.3311087,0.29881 -0.7833547,0.44417 -1.405193,0.44417 -0.4926251,0 -0.6460657,-0.10499 -0.6460657,-0.45225 v -3.81178 c 0,-0.60569 0.1130615,-0.71068 0.815658,-0.74298 v -0.20189 H 2.820531 v 0.20189 c 0.5491559,0.0323 0.6945207,0.16152 0.6945207,0.57338 v 3.9087 c 0,0.41187 -0.1049857,0.5007 -0.6945207,0.57339 v 0.20189 h 4.6678251 z"
         style="font-size:8.07582188px;fill:#ffffff;fill-opacity:1;stroke-width:0.19761325"
         id="path1417" />
      <path
         d="m 8.8905278,234.85116 c 0,0.36684 -0.1320596,0.46955 -0.6823078,0.5209 v 0.18342 h 2.567825 v -0.18342 c -0.557585,-0.0367 -0.696981,-0.13939 -0.696981,-0.5209 v -3.55093 c 0,-0.38151 0.154069,-0.49889 0.696981,-0.5209 v -0.18342 H 8.20822 v 0.18342 c 0.5282383,0.0367 0.6823078,0.14673 0.6823078,0.5209 z"
         style="font-style:normal;font-variant:normal;font-weight:bold;font-stretch:normal;font-size:7.33664227px;font-family:'Nimbus Roman No9 L';-inkscape-font-specification:'Nimbus Roman No9 L Bold';fill:#ffffff;fill-opacity:1;stroke-width:0.19761325"
         id="path1419" />
      <path
         d="m 12.688501,234.73441 c 0,0.51931 -0.07719,0.59651 -0.680713,0.64563 v 0.17544 h 2.505304 v -0.17544 c -0.610536,-0.0421 -0.68773,-0.11228 -0.68773,-0.64563 v -3.6983 c 0.863172,0.0281 1.22809,0.35088 1.34739,1.18598 h 0.203512 l -0.01404,-1.41055 h -4.210595 l -0.02105,1.41055 h 0.203512 c 0.1193,-0.8351 0.484218,-1.15791 1.354408,-1.18598 z"
         style="font-style:normal;font-variant:normal;font-weight:bold;font-stretch:normal;font-size:7.01765823px;font-family:'Nimbus Roman No9 L';-inkscape-font-specification:'Nimbus Roman No9 L Bold';fill:#ffffff;fill-opacity:1;stroke-width:0.19761325"
         id="path1421" />
      <path
         d="m 17.295374,234.77174 c 0,0.4957 -0.07368,0.56938 -0.649771,0.61627 v 0.16747 h 2.391426 v -0.16747 c -0.582784,-0.0402 -0.65647,-0.10717 -0.65647,-0.61627 v -3.5302 c 0.823937,0.0268 1.172268,0.33493 1.286146,1.13207 h 0.194261 l -0.0134,-1.34643 h -4.019204 l -0.0201,1.34643 h 0.194261 c 0.113878,-0.79714 0.462209,-1.10528 1.292844,-1.13207 z"
         style="font-style:normal;font-variant:normal;font-weight:bold;font-stretch:normal;font-size:6.69867373px;font-family:'Nimbus Roman No9 L';-inkscape-font-specification:'Nimbus Roman No9 L Bold';fill:#ffffff;fill-opacity:1;stroke-width:0.19761325"
         id="path1423" />
      <path
         d="m 24.145356,234.10729 h -0.185011 c -0.21053,0.49762 -0.338124,0.69539 -0.561413,0.89954 -0.261567,0.23605 -0.61883,0.35088 -1.110066,0.35088 -0.389161,0 -0.510375,-0.0829 -0.510375,-0.35726 v -3.01122 c 0,-0.47847 0.08932,-0.56141 0.644349,-0.58693 v -0.15949 h -2.226512 v 0.15949 c 0.433819,0.0255 0.548654,0.1276 0.548654,0.45296 v 3.08777 c 0,0.32536 -0.08294,0.39554 -0.548654,0.45296 v 0.15949 h 3.687461 z"
         style="font-style:normal;font-variant:normal;font-weight:bold;font-stretch:normal;font-size:6.37968922px;font-family:'Nimbus Roman No9 L';-inkscape-font-specification:'Nimbus Roman No9 L Bold';fill:#ffffff;fill-opacity:1;stroke-width:0.19761325"
         id="path1425" />
      <path
         d="m 28.119705,231.24281 h -3.681081 v 0.15949 c 0.440198,0.0255 0.561412,0.1276 0.561412,0.45296 v 3.08777 c 0,0.33174 -0.08932,0.40192 -0.561412,0.45296 v 0.15949 h 3.732118 l 0.255188,-1.32697 h -0.178632 c -0.19777,0.42743 -0.325364,0.60607 -0.555033,0.79108 -0.293465,0.23605 -0.644348,0.33812 -1.129205,0.33812 -0.4083,0 -0.529514,-0.0829 -0.529514,-0.35726 v -1.54389 c 0.695386,0 0.956954,0.24881 1.03351,0.98886 h 0.165872 v -2.15634 h -0.165872 c -0.0957,0.72728 -0.344503,0.95695 -1.03351,0.95057 v -1.48008 c 0,-0.24243 0.08294,-0.29985 0.41468,-0.29985 1.039889,0 1.352494,0.21691 1.511986,1.06541 h 0.159493 z"
         style="font-style:normal;font-variant:normal;font-weight:bold;font-stretch:normal;font-size:6.37968922px;font-family:'Nimbus Roman No9 L';-inkscape-font-specification:'Nimbus Roman No9 L Bold';fill:#ffffff;fill-opacity:1;stroke-width:0.19761325"
         id="path1427" />
      <path
         d="m 30.138676,231.02718 h -1.41342 v 0.16746 c 0.133974,0 0.247851,0.10048 0.569388,0.48231 v 3.17517 c 0,0.38182 -0.100481,0.47561 -0.589484,0.53589 v 0.16747 h 1.520599 v -0.16747 c -0.515798,-0.0603 -0.636374,-0.18756 -0.636374,-0.66316 v -2.69287 l 2.994307,3.64408 h 0.187563 v -3.94552 c 0,-0.38183 0.08708,-0.46891 0.522497,-0.5359 v -0.16746 h -1.440215 v 0.16746 c 0.495702,0.0469 0.622977,0.18757 0.622977,0.66317 v 2.0431 z"
         style="font-style:normal;font-variant:normal;font-weight:bold;font-stretch:normal;font-size:6.69867373px;font-family:'Nimbus Roman No9 L';-inkscape-font-specification:'Nimbus Roman No9 L Bold';fill:#ffffff;fill-opacity:1;stroke-width:0.19761325"
         id="path1429" />
      <path
         d="m 37.81082,231.58349 c 0,-0.41405 0.09825,-0.52633 0.547377,-0.5965 v -0.17545 h -1.543884 v 0.17545 c 0.547377,0.0421 0.68773,0.18245 0.68773,0.69474 v 2.14039 c 0,1.03861 -0.392989,1.52283 -1.22809,1.52283 -0.715801,0 -1.031596,-0.41404 -1.031596,-1.36844 v -2.3439 c 0,-0.28071 0.04211,-0.43509 0.147371,-0.53334 0.08421,-0.0702 0.196494,-0.0982 0.533342,-0.11228 v -0.17545 h -2.371969 v 0.17545 c 0.491237,0.0491 0.575448,0.14035 0.575448,0.64562 v 2.3439 c 0,0.68773 0.147371,1.03159 0.575448,1.34037 0.336848,0.24562 0.785978,0.37194 1.298267,0.37194 0.519307,0 1.010543,-0.15439 1.312302,-0.41405 0.315795,-0.26667 0.498254,-0.80001 0.498254,-1.45265 z"
         style="font-style:normal;font-variant:normal;font-weight:bold;font-stretch:normal;font-size:7.01765823px;font-family:'Nimbus Roman No9 L';-inkscape-font-specification:'Nimbus Roman No9 L Bold';fill:#ffffff;fill-opacity:1;stroke-width:0.19761325"
         id="path1431" />
      <path
         d="m 40.366343,234.69709 c 0,0.54292 -0.0807,0.62362 -0.711654,0.67497 v 0.18342 h 2.619181 v -0.18342 c -0.638288,-0.044 -0.718991,-0.11738 -0.718991,-0.67497 v -3.86641 c 0.902407,0.0293 1.283913,0.36684 1.408636,1.2399 h 0.212762 l -0.01467,-1.47467 h -4.401985 l -0.02201,1.47467 h 0.212762 c 0.124723,-0.87306 0.506229,-1.21055 1.415972,-1.2399 z"
         style="font-style:normal;font-variant:normal;font-weight:bold;font-stretch:normal;font-size:7.33664227px;font-family:'Nimbus Roman No9 L';-inkscape-font-specification:'Nimbus Roman No9 L Bold';fill:#ffffff;fill-opacity:1;stroke-width:0.19761325"
         id="path1433" />
      <path
         d="m 47.319521,231.71947 v -1.75246 h -0.242275 c -0.05653,0.20997 -0.121137,0.27458 -0.258426,0.27458 -0.07268,0 -0.161517,-0.0242 -0.339185,-0.0888 -0.379563,-0.12922 -0.63799,-0.17767 -0.944871,-0.17767 -1.098312,0 -1.768605,0.62184 -1.768605,1.63939 0,0.71067 0.419943,1.21945 1.380966,1.67977 l 0.54108,0.25843 c 0.710672,0.33918 0.904492,0.54915 0.904492,0.9691 0,0.55723 -0.395716,0.92064 -1.017554,0.92064 -0.468398,0 -0.872189,-0.2019 -1.17907,-0.59761 -0.218047,-0.29881 -0.331109,-0.56531 -0.468398,-1.13062 h -0.234198 v 1.99473 h 0.234198 c 0.04845,-0.20189 0.113062,-0.27458 0.242275,-0.27458 0.06461,0 0.153441,0.0242 0.331109,0.0808 0.403791,0.13729 0.702596,0.19382 1.049857,0.19382 1.195221,0 2.002803,-0.68644 2.002803,-1.704 0,-0.60568 -0.371487,-1.21137 -0.88834,-1.4698 l -1.187146,-0.58953 c -0.654141,-0.32303 -0.831809,-0.52493 -0.831809,-0.91257 0,-0.5007 0.339184,-0.80758 0.88834,-0.80758 0.363412,0 0.702597,0.15344 0.993326,0.45224 0.274578,0.28266 0.403791,0.51686 0.565308,1.04179 z"
         style="font-size:8.07582188px;fill:#ffffff;fill-opacity:1;stroke-width:0.19761325"
         id="path1435" />
    </g>
    <path
       inkscape:connector-curvature="0"
       style="fill:#ffffff;fill-opacity:1;stroke:none;stroke-width:0.52668399px;stroke-linecap:butt;stroke-linejoin:miter;stroke-opacity:1"
       d="m 19.98496,268.52224 -0.03085,0.077 c -0.157657,0.20609 -1.217643,1.4839 -3.791708,1.85163 -2.793156,0.399 -6.5170413,1.86173 -6.5835473,6.38399 0.06649,4.45576 3.1251293,4.5231 3.1251293,4.5231 0,0 -0.06688,1.89385 0.132774,3.42344 0.173582,1.33154 0.852998,2.66237 2.034729,3.55512 -0.268237,-0.84569 -0.640622,-2.82112 0.126603,-6.24922 0,0 0.09973,3.12537 1.230301,5.35325 0.629252,1.24001 1.106443,2.06576 1.449406,2.6293 0.415922,0.26231 0.845057,0.53198 1.195326,0.75711 -0.0011,-0.0179 -0.24158,-4.32256 0.77254,-7.04338 0.962183,-2.58017 1.434676,6.08665 1.484382,7.05161 0.452925,-0.29101 0.646493,-0.41991 1.307457,-0.83425 0.342406,-0.56922 0.822901,-1.40892 1.407227,-2.56039 1.13059,-2.22788 1.2303,-5.35325 1.2303,-5.35325 0.747318,3.33946 0.412874,5.29331 0.147107,6.17517 1.125674,-0.89148 1.779154,-2.18404 1.948316,-3.48107 0.19952,-1.52959 0.132774,-3.42344 0.132774,-3.42344 0,0 3.058623,-0.0673 3.125129,-4.5231 -0.06649,-4.52226 -3.790375,-5.98499 -6.583549,-6.38399 -2.574524,-0.36778 -3.634388,-1.6459 -3.791707,-1.85163 l -0.03085,-0.077 c 0,0 -0.01592,0.0199 -0.01792,0.0205 -10e-4,-10e-4 -0.01791,-0.0205 -0.01791,-0.0205 z m -5.320323,10.65918 c 0,0 2.130995,0.22936 5.268884,0.2582 3.03766,-0.047 5.337838,-0.2582 5.337838,-0.2582 0,0 -1.263166,2.05015 -5.303877,2.05015 -4.040734,0 -5.302845,-2.05015 -5.302845,-2.05015 z"
       id="path872-3-9"
       sodipodi:nodetypes="cccccccccccccccccccccccccccccsc" />
    <path
       style="fill:#ffffff;fill-opacity:1;stroke:none;stroke-width:0.03245623px;stroke-linecap:butt;stroke-linejoin:miter;stroke-opacity:1"
       d="m 27.491016,287.78441 c -0.120432,-0.0543 0.09973,-0.70012 0.178558,-1.12186 0.07883,-0.42171 0.133372,-1.57505 0.464172,-1.95667 0.330781,-0.38156 0.564599,-0.45006 0.613708,-0.24272 0.04897,0.20736 0.04021,0.55809 0.169202,0.48472 0.128793,-0.0738 0.167212,-1.64009 0.722574,-2.32634 0.555302,-0.68626 0.945085,-1.07019 1.067886,-0.95675 0.122821,0.11367 0.172985,0.46185 0.267161,0.31251 0.09436,-0.1493 -0.05156,-1.07635 0.926714,-1.76564 0.978047,-0.68973 1.629298,-0.79696 1.646954,-0.46544 0.01792,0.33147 -0.448983,1.41921 -0.28639,1.50375 0.162634,0.0846 0.535436,-0.26694 0.733764,-0.55186 0.198066,-0.28548 0.649078,-1.42254 1.131464,-1.6509 0.482366,-0.22834 1.445268,-0.15726 1.567014,-0.18473 0.121626,-0.0283 0.284339,0.0569 0.27576,0.18473 -0.008,0.1278 -0.02588,0.38323 0.05613,0.38455 0.08201,10e-4 0.626987,-0.25241 0.936167,-0.71953 0.309163,-0.4672 0.412536,-1.19023 1.021346,-1.32804 0.608812,-0.13775 1.309806,1.13581 0.670659,2.34865 -0.639147,1.21284 -1.066692,1.90771 -0.982409,1.96806 0.0842,0.0603 0.420716,-0.28547 0.656945,-0.0715 0.235926,0.21361 0.358568,1.35995 -0.858615,2.22252 -1.216941,0.86294 -2.188402,0.69618 -2.521176,0.79581 -0.332711,0.0997 -0.513619,0.3528 -0.290986,0.35266 0.222987,3e-4 1.380968,0.17298 1.575494,0.72034 0.194483,0.54744 -0.02747,0.68816 -0.607338,0.86578 -0.579928,0.17776 -0.526898,0.36245 -1.090203,0.50719 -0.563026,0.14512 -0.783666,0.20382 -0.783666,0.20382 0,0 0.399836,0.21624 -0.135561,0.4831 -0.535458,0.26695 -1.120361,0.54935 -1.863637,0.27843 -0.743276,-0.27092 -1.487867,-0.45991 -1.613276,-0.40947 -0.125408,0.0504 -0.135162,0.0368 -0.07365,0.094 0.06131,0.0567 0.569455,0.47801 0.171392,0.76674 -0.398082,0.28874 -1.031836,0.14094 -1.534507,0.20177 -0.502631,0.0609 -0.877285,-0.0928 -1.440888,0.49829 -0.563623,0.59102 -0.55166,0.66336 -0.64926,0.61256 -0.09754,-0.0508 -0.128394,-0.37259 -0.298353,-0.41138 -0.169999,-0.0388 -0.196474,-0.0199 -0.196474,-0.0199 0,0 -0.07027,0.29395 -0.19727,0.64938 -0.127002,0.35538 -0.291944,0.21172 -0.09356,-0.2966 0.198265,-0.50837 0.393286,-1.21677 0.931668,-1.87051 0.538362,-0.65373 1.740556,-2.01169 3.540033,-2.99279 1.799478,-0.98113 3.604629,-1.70311 4.118527,-2.05557 0.513599,-0.35284 0.87609,-0.85821 0.87609,-0.85821 0,0 -1.124041,0.79557 -1.679005,1.03554 -0.554746,0.24028 -3.561194,1.65133 -4.34281,2.13722 -0.781576,0.48595 -1.689217,1.24483 -2.081349,1.79309 -0.39241,0.54786 -0.439807,0.84549 -0.698945,0.85119 z"
       id="path953-6-2"
       inkscape:connector-curvature="0" />
    <path
       style="fill:#ffffff;fill-opacity:1;stroke:none;stroke-width:0.03245623px;stroke-linecap:butt;stroke-linejoin:miter;stroke-opacity:1"
       d="m 12.503644,287.83738 c 0.120432,-0.0543 -0.09973,-0.70012 -0.178559,-1.12186 -0.07883,-0.42171 -0.133371,-1.57505 -0.464152,-1.95667 -0.330801,-0.38156 -0.564598,-0.45008 -0.613727,-0.24272 -0.04897,0.20734 -0.04021,0.55807 -0.169202,0.48472 -0.128793,-0.0738 -0.167212,-1.64007 -0.722574,-2.32634 -0.5553023,-0.68626 -0.9450855,-1.07021 -1.0678866,-0.95675 -0.1228211,0.11367 -0.1729846,0.46185 -0.2671605,0.31251 -0.094355,-0.1493 0.051557,-1.07633 -0.9266916,-1.76566 -0.9780703,-0.68971 -1.6293203,-0.79694 -1.6469768,-0.46542 -0.017916,0.33147 0.4490035,1.41919 0.2863898,1.50375 -0.1626334,0.0846 -0.5354361,-0.26692 -0.733761,-0.55186 -0.1980664,-0.28547 -0.6490606,-1.42254 -1.1314469,-1.6509 -0.4823862,-0.22834 -1.4452674,-0.15726 -1.5670335,-0.18473 -0.1216267,-0.0283 -0.2843397,0.0569 -0.2757601,0.18473 0.00796,0.1278 0.025878,0.38323 -0.056135,0.38455 -0.082013,10e-4 -0.6269846,-0.25241 -0.9361672,-0.71953 -0.3091627,-0.4672 -0.4125354,-1.19023 -1.0213457,-1.32806 -0.60881021,-0.13775 -1.30980591,1.13583 -0.67065867,2.34867 0.63914718,1.21286 1.06669197,1.90771 0.98240917,1.96808 -0.084203,0.0603 -0.42071689,-0.28549 -0.65692339,-0.0715 -0.23594784,0.21361 -0.35858974,1.35993 0.85861269,2.2225 1.2169238,0.86294 2.1883846,0.69618 2.521156,0.79579 0.3327117,0.0997 0.513619,0.35282 0.2909884,0.35266 -0.2229889,3.4e-4 -1.3809705,0.17298 -1.5754936,0.72036 -0.1944832,0.54744 0.02747,0.68816 0.6073571,0.86578 0.5799065,0.17777 0.5268765,0.36245 1.0901812,0.50719 0.5630261,0.14512 0.7836662,0.20382 0.7836662,0.20382 0,0 -0.3998353,0.21624 0.135561,0.4831 0.535456,0.26695 1.1203787,0.54935 1.8636352,0.27843 0.7432764,-0.27092 1.4878666,-0.45991 1.6132758,-0.40947 0.1254089,0.0504 0.1351629,0.0368 0.073653,0.094 -0.061311,0.0567 -0.5694554,0.47801 -0.1713921,0.76674 0.3981036,0.28874 1.0318558,0.14094 1.5345061,0.20177 0.50265,0.0609 0.877284,-0.0928 1.440888,0.49829 0.563623,0.59102 0.551659,0.66336 0.649259,0.61256 0.09754,-0.0508 0.128395,-0.37259 0.298374,-0.41138 0.169999,-0.0388 0.196474,-0.0199 0.196474,-0.0199 0,0 0.07027,0.29395 0.19727,0.64938 0.127001,0.35538 0.291944,0.21172 0.09356,-0.2966 -0.198266,-0.50837 -0.393286,-1.21677 -0.931668,-1.87051 -0.538383,-0.65373 -1.740576,-2.01169 -3.5400528,-2.99277 -1.7994775,-0.98115 -3.6046487,-1.70313 -4.1185463,-2.05559 -0.513599,-0.35284 -0.8760903,-0.85821 -0.8760903,-0.85821 0,0 1.1240415,0.79557 1.679006,1.03554 0.5547447,0.24028 3.5612128,1.65133 4.3428291,2.13722 0.7815743,0.48595 1.6892163,1.24483 2.0813483,1.79309 0.39241,0.54786 0.439806,0.84549 0.698945,0.85119 z"
       id="path953-5-1-2"
       inkscape:connector-curvature="0" />
  </g>
</svg>
