<?xml version="1.0" encoding="UTF-8" standalone="no"?>
<!-- Created with Inkscape (http://www.inkscape.org/) -->

<svg
   xmlns:dc="http://purl.org/dc/elements/1.1/"
   xmlns:cc="http://creativecommons.org/ns#"
   xmlns:rdf="http://www.w3.org/1999/02/22-rdf-syntax-ns#"
   xmlns:svg="http://www.w3.org/2000/svg"
   xmlns="http://www.w3.org/2000/svg"
   xmlns:sodipodi="http://sodipodi.sourceforge.net/DTD/sodipodi-0.dtd"
   xmlns:inkscape="http://www.inkscape.org/namespaces/inkscape"
   width="60mm"
   height="33mm"
   viewBox="0 0 60 33"
   version="1.1"
   id="svg996"
   inkscape:version="0.92.3 (2405546, 2018-03-11)"
   sodipodi:docname="logo_white.svg">
  <defs
     id="defs990" />
  <sodipodi:namedview
     id="base"
     pagecolor="#ffffff"
     bordercolor="#666666"
     borderopacity="1.0"
     inkscape:pageopacity="0.0"
     inkscape:pageshadow="2"
     inkscape:zoom="0.98994949"
     inkscape:cx="416.10851"
     inkscape:cy="160.95279"
     inkscape:document-units="mm"
     inkscape:current-layer="layer1"
     showgrid="false"
     inkscape:window-width="1366"
     inkscape:window-height="662"
     inkscape:window-x="0"
     inkscape:window-y="27"
     inkscape:window-maximized="1" />
  <metadata
     id="metadata993">
    <rdf:RDF>
      <cc:Work
         rdf:about="">
        <dc:format>image/svg+xml</dc:format>
        <dc:type
           rdf:resource="http://purl.org/dc/dcmitype/StillImage" />
        <dc:title></dc:title>
      </cc:Work>
    </rdf:RDF>
  </metadata>
  <g
     inkscape:label="Layer 1"
     inkscape:groupmode="layer"
     id="layer1"
     transform="translate(0,-264)">
    <path
       sodipodi:nodetypes="cccccccccccccccccccccccccccccsc"
       id="path872-3-9"
       d="m 30.184451,264.41045 -0.04507,0.11252 c -0.230276,0.30102 -1.778503,2.16741 -5.538219,2.70452 -4.079718,0.58278 -9.518877,2.71926 -9.616017,9.32454 0.09711,6.50814 4.564605,6.6065 4.564605,6.6065 0,0 -0.09769,2.76618 0.193932,5.00032 0.253536,1.94487 1.245902,3.8887 2.971952,5.19266 -0.391788,-1.23523 -0.935698,-4.12057 0.184919,-9.1277 0,0 0.145667,4.56496 1.796993,7.81903 0.919097,1.81118 1.616088,3.01728 2.117025,3.8404 0.607498,0.38312 1.234301,0.777 1.745909,1.10584 -0.0015,-0.0262 -0.352857,-6.31359 1.12838,-10.28765 1.40538,-3.76864 2.095509,8.89024 2.16811,10.29966 0.661548,-0.42505 0.944276,-0.61331 1.909689,-1.21851 0.500123,-0.83141 1.201941,-2.05789 2.055415,-3.73974 1.651356,-3.25407 1.796993,-7.81903 1.796993,-7.81903 1.091542,4.87766 0.603049,7.73148 0.214866,9.01954 1.644175,-1.3021 2.598656,-3.19004 2.845737,-5.0845 0.291421,-2.23414 0.193932,-5.00032 0.193932,-5.00032 0,0 4.467465,-0.0983 4.564605,-6.6065 -0.09711,-6.60528 -5.53627,-8.74176 -9.616017,-9.32454 -3.760385,-0.53719 -5.308437,-2.40403 -5.538218,-2.70452 l -0.04507,-0.11252 c 0,0 -0.02326,0.0291 -0.02617,0.0299 -0.0015,-0.002 -0.02617,-0.0299 -0.02617,-0.0299 z m -7.770933,15.56893 c 0,0 3.11256,0.33501 7.695803,0.37714 4.436849,-0.0686 7.796519,-0.37714 7.796519,-0.37714 0,0 -1.844997,2.99449 -7.746917,2.99449 -5.901949,0 -7.745405,-2.99449 -7.745405,-2.99449 z"
       style="fill:#ffffff;fill-opacity:1;stroke:none;stroke-width:0.76928174px;stroke-linecap:butt;stroke-linejoin:miter;stroke-opacity:1"
       inkscape:connector-curvature="0" />
    <path
       inkscape:connector-curvature="0"
       id="path953-6-2"
       d="m 41.147901,292.54502 c -0.175905,-0.0794 0.145667,-1.0226 0.260805,-1.63859 0.115138,-0.61596 0.194804,-2.30055 0.677976,-2.85795 0.483143,-0.55731 0.82466,-0.65736 0.896389,-0.35451 0.07153,0.30288 0.05873,0.81515 0.247139,0.70798 0.188117,-0.10787 0.244232,-2.39554 1.055401,-3.39787 0.811082,-1.00237 1.380404,-1.56315 1.559769,-1.39745 0.179394,0.16602 0.252664,0.67458 0.390219,0.45646 0.137816,-0.21807 -0.07531,-1.57213 1.353567,-2.57892 1.428553,-1.00743 2.379778,-1.16405 2.405567,-0.67983 0.02617,0.48416 -0.655791,2.07291 -0.418305,2.1964 0.237545,0.12356 0.782065,-0.3899 1.071742,-0.80606 0.289298,-0.41696 0.948055,-2.07777 1.652635,-2.41132 0.704551,-0.33352 2.110977,-0.2297 2.288801,-0.26982 0.17765,-0.0413 0.415311,0.0832 0.402779,0.26982 -0.01163,0.18666 -0.0378,0.55976 0.08199,0.56167 0.11979,0.002 0.915782,-0.36867 1.367379,-1.05095 0.451567,-0.68239 0.602554,-1.73846 1.491791,-1.93975 0.889236,-0.2012 1.91312,1.65897 0.979573,3.43047 -0.933547,1.77149 -1.558025,2.78642 -1.43492,2.87458 0.122988,0.0881 0.614504,-0.41697 0.95954,-0.10438 0.3446,0.312 0.523732,1.98636 -1.254101,3.24624 -1.777484,1.26041 -3.196413,1.01685 -3.682464,1.16237 -0.485963,0.14567 -0.750198,0.5153 -0.425021,0.5151 0.3257,4.4e-4 2.017064,0.25266 2.301187,1.05214 0.284065,0.7996 -0.04012,1.00513 -0.887085,1.26457 -0.847048,0.25964 -0.769592,0.5294 -1.592362,0.74081 -0.822364,0.21196 -1.144633,0.2977 -1.144633,0.2977 0,0 0.584004,0.31585 -0.198003,0.70563 -0.782123,0.3899 -1.63644,0.80239 -2.722079,0.40667 -1.08564,-0.39571 -2.173198,-0.67175 -2.356372,-0.59807 -0.183174,0.0736 -0.197421,0.0538 -0.107579,0.13723 0.08955,0.0829 0.831755,0.69818 0.250338,1.11992 -0.581417,0.42174 -1.507114,0.20585 -2.241321,0.29471 -0.734149,0.089 -1.281374,-0.13549 -2.104581,0.72781 -0.823235,0.86324 -0.805761,0.9689 -0.948317,0.8947 -0.142468,-0.0741 -0.187535,-0.5442 -0.435779,-0.60087 -0.248302,-0.0567 -0.286972,-0.0291 -0.286972,-0.0291 0,0 -0.102636,0.42935 -0.288136,0.94849 -0.1855,0.51908 -0.426417,0.30924 -0.136653,-0.43322 0.289589,-0.74253 0.574439,-1.77723 1.360807,-2.73208 0.786339,-0.95486 2.542279,-2.93832 5.17062,-4.37132 2.628341,-1.43306 5.264969,-2.48759 6.015575,-3.00239 0.75017,-0.51536 1.279629,-1.25352 1.279629,-1.25352 0,0 -1.64179,1.16202 -2.452378,1.51252 -0.810268,0.35097 -5.201527,2.41196 -6.343165,3.12166 -1.14158,0.70978 -2.467294,1.81822 -3.040047,2.61901 -0.573159,0.80021 -0.642388,1.23494 -1.020889,1.24325 z"
       style="fill:#ffffff;fill-opacity:1;stroke:none;stroke-width:0.04740601px;stroke-linecap:butt;stroke-linejoin:miter;stroke-opacity:1" />
    <path
       inkscape:connector-curvature="0"
       id="path953-5-1-2"
       d="m 19.257141,292.62239 c 0.175905,-0.0794 -0.145666,-1.0226 -0.260804,-1.63859 -0.115138,-0.61596 -0.194804,-2.30055 -0.677947,-2.85795 -0.483172,-0.55731 -0.82466,-0.65739 -0.896418,-0.35451 -0.07152,0.30285 -0.05873,0.81512 -0.247139,0.70798 -0.188117,-0.10787 -0.244232,-2.39551 -1.055402,-3.39788 -0.811082,-1.00236 -1.380404,-1.56317 -1.559769,-1.39744 -0.179394,0.16602 -0.252663,0.67458 -0.390218,0.45645 -0.137817,-0.21806 0.07531,-1.57209 -1.353539,-2.57894 -1.428581,-1.0074 -2.379807,-1.16402 -2.405596,-0.67981 -0.02617,0.48416 0.655821,2.07289 0.418305,2.1964 -0.237544,0.12357 -0.782065,-0.38987 -1.0717416,-0.80605 -0.2892984,-0.41697 -0.9480265,-2.07777 -1.6526062,-2.41132 -0.7045797,-0.33352 -2.110977,-0.2297 -2.2888301,-0.26982 -0.1776495,-0.0413 -0.4153103,0.0832 -0.4027789,0.26982 0.01163,0.18666 0.037798,0.55975 -0.081992,0.56167 -0.1197899,0.002 -0.9157821,-0.36867 -1.3673784,-1.05095 -0.4515671,-0.68239 -0.6025547,-1.73846 -1.4917911,-1.93978 -0.8892365,-0.2012 -1.91312021,1.659 -0.9795732,3.4305 0.9335471,1.77152 1.5580246,2.78642 1.4349201,2.8746 -0.1229882,0.0881 -0.6145047,-0.41699 -0.9595112,-0.10438 -0.3446285,0.31201 -0.523761,1.98634 1.2541013,3.24622 1.7774552,1.26041 3.1963839,1.01685 3.6824343,1.16234 0.4859631,0.14567 0.7501987,0.51533 0.4250215,0.5151 -0.3257006,4.9e-4 -2.0170641,0.25266 -2.3011871,1.05217 -0.2840648,0.7996 0.040124,1.00513 0.8871139,1.26457 0.8470192,0.25964 0.7695629,0.5294 1.5923333,0.74081 0.8223634,0.21196 1.1446331,0.2977 1.1446331,0.2977 0,0 -0.5840048,0.31584 0.1980022,0.70563 0.7820943,0.3899 1.6364401,0.80239 2.7220511,0.40667 1.085639,-0.39571 2.173198,-0.67175 2.356372,-0.59808 0.183174,0.0736 0.19742,0.0538 0.107578,0.13724 -0.08955,0.0829 -0.831755,0.69818 -0.250338,1.11992 0.581476,0.42173 1.507143,0.20585 2.241322,0.29471 0.734178,0.089 1.281373,-0.1355 2.10458,0.72781 0.823236,0.86324 0.805762,0.9689 0.948317,0.8947 0.142469,-0.0741 0.187535,-0.5442 0.435809,-0.60087 0.248302,-0.0567 0.286972,-0.0291 0.286972,-0.0291 0,0 0.102636,0.42936 0.288135,0.9485 0.1855,0.51908 0.426418,0.30924 0.136654,-0.43322 -0.289589,-0.74253 -0.574439,-1.77723 -1.360807,-2.73209 -0.786369,-0.95485 -2.542308,-2.93831 -5.17065,-4.37128 -2.628341,-1.43309 -5.264998,-2.48762 -6.0156038,-3.00242 -0.7501696,-0.51536 -1.2796293,-1.25352 -1.2796293,-1.25352 0,0 1.6417902,1.16202 2.4523782,1.51252 0.8102681,0.35097 5.2015559,2.41196 6.3431949,3.12166 1.14158,0.70978 2.467294,1.81822 3.040046,2.61901 0.57316,0.80021 0.642388,1.23494 1.020889,1.24325 z"
       style="fill:#ffffff;fill-opacity:1;stroke:none;stroke-width:0.04740601px;stroke-linecap:butt;stroke-linejoin:miter;stroke-opacity:1" />
  </g>
</svg>
